<svg width="31" height="31" viewBox="0 0 31 31" fill="none" xmlns="http://www.w3.org/2000/svg">
<g clip-path="url(#clip0_2_567)">
<mask id="mask0_2_567" style="mask-type:luminance" maskUnits="userSpaceOnUse" x="0" y="0" width="31" height="31">
<path d="M30.1719 0.8125H0.171875V30.8125H30.1719V0.8125Z" fill="white"/>
</mask>
<g mask="url(#mask0_2_567)">
<path d="M28.5094 0.812547H1.82192C1.60418 0.812541 1.3886 0.85563 1.1876 0.939331C0.986589 1.02303 0.804136 1.14569 0.650754 1.30023C0.497374 1.45478 0.376096 1.63815 0.293915 1.83978C0.211734 2.04141 0.170273 2.25731 0.171922 2.47505V29.1625C0.171922 29.6002 0.345761 30.0198 0.655196 30.3293C0.964632 30.6387 1.38432 30.8125 1.82192 30.8125H16.1969V19.2H12.2844V14.6625H16.1969V11.325C16.1969 7.45005 18.5594 5.33755 22.0219 5.33755C23.1871 5.33082 24.3517 5.39344 25.5094 5.52505V9.56252H23.1219C21.2344 9.56252 20.8719 10.45 20.8719 11.7625V14.6625H25.3594L24.7719 19.1875H20.8719V30.8125H28.5219C28.7397 30.8125 28.9552 30.7694 29.1562 30.6857C29.3572 30.6021 29.5397 30.4794 29.6931 30.3249C29.8464 30.1703 29.9677 29.9869 30.0499 29.7853C30.1321 29.5837 30.1736 29.3678 30.1719 29.15V2.46255C30.1719 2.24481 30.1289 2.02923 30.0452 1.82822C29.9614 1.62721 29.8388 1.44476 29.6842 1.29138C29.5297 1.138 29.3463 1.01672 29.1447 0.93454C28.9431 0.852359 28.7272 0.810898 28.5094 0.812547Z" fill="#131313"/>
</g>
</g>
<defs>
<clipPath id="clip0_2_567">
<rect width="30" height="30" fill="white" transform="translate(0.171875 0.8125)"/>
</clipPath>
</defs>
</svg>
