<svg width="31" height="31" viewBox="0 0 31 31" fill="none" xmlns="http://www.w3.org/2000/svg">
<g clip-path="url(#clip0_2_544)">
<mask id="mask0_2_544" style="mask-type:luminance" maskUnits="userSpaceOnUse" x="0" y="0" width="31" height="31">
<path d="M30.1719 0.8125H0.171875V30.8125H30.1719V0.8125Z" fill="white"/>
</mask>
<g mask="url(#mask0_2_544)">
<path d="M21.8937 0.8125H8.45002C6.25537 0.815317 4.15143 1.68838 2.5996 3.24022C1.04775 4.79206 0.174692 6.89599 0.171875 9.09064V22.5344C0.174692 24.729 1.04775 26.8329 2.5996 28.3848C4.15143 29.9366 6.25537 30.8097 8.45002 30.8125H21.8937C24.0884 30.8097 26.1923 29.9366 27.7442 28.3848C29.296 26.8329 30.1691 24.729 30.1719 22.5344V9.09064C30.1691 6.89599 29.296 4.79206 27.7442 3.24022C26.1923 1.68838 24.0884 0.815317 21.8937 0.8125ZM27.5101 22.5344C27.5082 24.0234 26.9159 25.4508 25.863 26.5036C24.8102 27.5565 23.3827 28.1489 21.8937 28.1507H8.45002C6.96103 28.1489 5.53358 27.5565 4.48072 26.5036C3.42785 25.4508 2.83553 24.0234 2.83365 22.5344V9.09064C2.83553 7.60166 3.42785 6.17421 4.48072 5.12134C5.53358 4.06848 6.96103 3.47616 8.45002 3.47428H21.8937C23.3827 3.47616 24.8102 4.06848 25.863 5.12134C26.9159 6.17421 27.5082 7.60166 27.5101 9.09064V22.5344Z" fill="#131313"/>
<path d="M15.1718 8.08789C13.643 8.08789 12.1485 8.54125 10.8774 9.3906C9.60624 10.24 8.61552 11.4472 8.03045 12.8597C7.44538 14.2721 7.29232 15.8263 7.59059 17.3257C7.88881 18.8252 8.62502 20.2025 9.70602 21.2835C10.7871 22.3645 12.1644 23.1007 13.6638 23.399C15.1632 23.6972 16.7175 23.5442 18.1299 22.9591C19.5424 22.374 20.7496 21.3833 21.599 20.1122C22.4483 18.841 22.9017 17.3465 22.9017 15.8177C22.8993 13.7684 22.0842 11.8036 20.635 10.3545C19.186 8.90539 17.2212 8.09025 15.1718 8.08789ZM15.1718 20.8857C14.1695 20.8857 13.1897 20.5885 12.3562 20.0316C11.5227 19.4747 10.8732 18.6832 10.4896 17.7572C10.106 16.8311 10.0057 15.8121 10.2012 14.829C10.3967 13.8459 10.8795 12.9428 11.5882 12.2341C12.297 11.5253 13.2 11.0426 14.1831 10.8471C15.1662 10.6515 16.1852 10.7519 17.1113 11.1355C18.0374 11.519 18.8289 12.1686 19.3857 13.0021C19.9427 13.8355 20.2399 14.8153 20.2399 15.8177C20.237 17.1605 19.702 18.4474 18.752 19.3963C17.8021 20.3453 16.5146 20.879 15.1718 20.8804V20.8857Z" fill="#131313"/>
<path d="M23.2264 5.8252C22.7748 5.82535 22.3372 5.98207 21.9882 6.26867C21.6392 6.55527 21.4004 6.954 21.3125 7.39695C21.2245 7.83988 21.2928 8.29961 21.5058 8.69782C21.7188 9.09604 22.0633 9.40804 22.4805 9.58075C22.8978 9.75347 23.362 9.77611 23.7942 9.6449C24.2262 9.51375 24.5995 9.23675 24.8503 8.86118C25.1011 8.48568 25.214 8.03475 25.1695 7.58536C25.1252 7.13595 24.9263 6.71584 24.607 6.39659C24.4256 6.21535 24.2104 6.07161 23.9735 5.97357C23.7366 5.87552 23.4827 5.82511 23.2264 5.8252Z" fill="#131313"/>
</g>
</g>
<defs>
<clipPath id="clip0_2_544">
<rect width="30" height="30" fill="white" transform="translate(0.171875 0.8125)"/>
</clipPath>
</defs>
</svg>
