<svg width="70" height="31" viewBox="0 0 70 31" fill="none" xmlns="http://www.w3.org/2000/svg">
<path d="M27.1575 21.7814C27.0961 21.0349 26.9191 20.3024 26.6332 19.6101C26.3622 18.9784 25.99 18.3953 25.5313 17.8836C24.8329 17.1272 23.9994 16.5078 23.0737 16.0575C22.5625 15.8051 22.0366 15.5833 21.499 15.3935C21.3132 15.3237 21.1256 15.2606 20.9364 15.2075C20.2959 15.0299 19.6537 14.8589 18.9983 14.741C18.9618 14.741 18.907 14.741 18.9087 14.6613C19.0995 14.6265 19.282 14.5468 19.4712 14.4953C19.949 14.3599 20.4189 14.1975 20.8784 14.0089C21.3065 13.8393 21.7252 13.647 22.1329 13.4329C22.5884 13.1974 23.025 12.9272 23.4388 12.6244C23.9077 12.2812 24.3305 11.8789 24.6966 11.4275C25.0091 11.0443 25.2661 10.619 25.46 10.1642C25.6589 9.69278 25.7918 9.19611 25.8549 8.68835C25.9762 7.72043 25.8803 6.73767 25.5745 5.81142C25.3986 5.27446 25.1362 4.7698 24.7978 4.31735C24.5349 3.9639 24.2363 3.63848 23.9068 3.3462C23.5352 3.01495 23.1298 2.72392 22.6971 2.47798C22.1935 2.20894 21.6664 1.98666 21.1223 1.81394C20.9293 1.74729 20.7326 1.69186 20.5332 1.64793C19.8315 1.47105 19.1201 1.33525 18.4025 1.24121C18.0391 1.20303 17.679 1.12833 17.3157 1.1001C16.1789 1.01046 15.0423 0.915837 13.9006 0.920817C12.7589 0.925797 11.5908 0.904215 10.4358 0.937416C9.34061 0.968958 8.2454 1.0171 7.15019 1.05196C6.05498 1.08682 4.9432 1.10841 3.8314 1.13995C2.85346 1.16761 1.87498 1.1986 0.895932 1.23291C0.777101 1.22528 0.657813 1.23648 0.54248 1.26611V3.60517C0.574544 3.61437 0.607278 3.62103 0.640384 3.62509C1.1812 3.63226 1.72057 3.68278 2.25332 3.77616C2.63812 3.83179 3.00587 3.97181 3.33027 4.1862C3.71856 4.45181 3.90442 4.86186 4.03883 5.30344C4.1887 5.84813 4.25692 6.41205 4.24127 6.97679C4.24127 12.7871 4.24127 18.5974 4.24127 24.4077C4.24627 24.8238 4.21294 25.2394 4.14171 25.6494C4.08673 26.0006 3.97462 26.3405 3.80983 26.6554C3.57807 27.053 3.20174 27.3456 2.75943 27.4722C2.24969 27.6312 1.72015 27.7178 1.18632 27.7295C0.98222 27.7428 0.778114 27.7478 0.549117 27.7577V30.125C0.643089 30.1589 0.743959 30.1692 0.84283 30.1549H15.6944C15.9433 30.1549 16.1922 30.1549 16.4395 30.1433C17.9525 30.1129 19.4594 29.9395 20.9398 29.6253C21.5681 29.4871 22.1841 29.2978 22.7817 29.0592C23.3261 28.8425 23.8439 28.564 24.3249 28.2292C24.8681 27.8519 25.3543 27.3985 25.7686 26.8829C26.4229 26.0639 26.8606 25.0934 27.0414 24.0607C27.1858 23.3101 27.2248 22.5429 27.1575 21.7814ZM11.7815 3.50391C11.833 3.4458 11.8961 3.46074 11.9475 3.46074C12.9713 3.48233 13.9902 3.52051 14.9958 3.76122C15.7513 3.93942 16.4161 4.38673 16.866 5.01956C17.1531 5.4059 17.3689 5.84049 17.5032 6.30283C17.6028 6.62096 17.6756 6.94694 17.7206 7.27726C17.8259 8.1334 17.8259 8.99924 17.7206 9.85538C17.6555 10.4936 17.4691 11.1134 17.1713 11.6815C16.8963 12.1812 16.4809 12.5892 15.9765 12.8552C15.3272 13.1994 14.6085 13.3924 13.874 13.4196C13.2468 13.4511 12.6179 13.4494 11.989 13.4511C11.9184 13.4626 11.846 13.4522 11.7815 13.4213V3.50391ZM18.7709 23.9229C18.6679 24.6204 18.4373 25.2929 18.0906 25.9067C17.7493 26.5076 17.2264 26.9847 16.5971 27.2697C16.1806 27.4522 15.7339 27.5563 15.2796 27.5768C14.5994 27.6415 13.9132 27.5554 13.27 27.3244C12.6594 27.0821 12.1782 26.6803 11.9591 26.0362C11.8178 25.5899 11.7511 25.1231 11.7616 24.655V16.2932C11.7496 16.228 11.7583 16.1606 11.7865 16.1006C11.8257 16.078 11.8713 16.0692 11.916 16.0757C12.7557 16.084 13.597 16.0442 14.4366 16.1255C15.0501 16.1627 15.6574 16.2691 16.247 16.4426C16.751 16.6059 17.207 16.891 17.5745 17.2726C18.0325 17.7585 18.3731 18.3428 18.5701 18.9809C18.7497 19.5705 18.861 20.1787 18.902 20.7937C18.9927 21.8375 18.9486 22.8887 18.7709 23.9213V23.9229Z" fill="#131313"/>
<path d="M39.1367 27.8624C38.6543 27.8676 38.1731 27.8119 37.7047 27.6964C37.4451 27.6371 37.2075 27.5058 37.0191 27.3176C36.8307 27.1294 36.6991 26.8919 36.6393 26.6323C36.5064 26.1136 36.4467 25.5788 36.4618 25.0436C36.4618 20.7656 36.4618 16.9092 36.4618 12.6245H36.4385L26.4058 13.6338V15.8169H27.0795C27.6148 15.8063 28.1474 15.8941 28.651 16.0758C28.8729 16.1577 29.0637 16.3069 29.1969 16.5025C29.3099 16.6853 29.3981 16.8824 29.4591 17.0885C29.5874 17.5757 29.6434 18.0791 29.625 18.5825C29.625 20.7518 29.625 22.9209 29.625 25.0901C29.6437 25.6029 29.5878 26.1157 29.4591 26.6124C29.3081 27.1203 29.0277 27.5072 28.5149 27.6649C28.16 27.7809 27.7897 27.8429 27.4164 27.8491C27.1525 27.8491 26.8887 27.8491 26.6266 27.8574C26.5635 27.8574 26.4938 27.8375 26.4407 27.8923C26.3876 28.216 26.4075 30.0023 26.4672 30.1533C26.5087 30.1533 26.5519 30.1633 26.595 30.1633H39.2064C39.2284 30.1613 39.2501 30.1568 39.2711 30.15C39.2779 30.1474 39.2841 30.1434 39.2894 30.1384L39.3143 30.1102V27.9039C39.2562 27.8409 39.1948 27.8624 39.1367 27.8624Z" fill="#131313"/>
<path d="M32.8526 8.71646C33.8868 8.71802 34.8793 8.30844 35.6117 7.57792C36.3441 6.8474 36.7564 5.85573 36.7579 4.82107C36.7595 3.78641 36.3501 2.79351 35.6199 2.06081C34.8897 1.3281 33.8984 0.915603 32.8642 0.914062C30.8248 0.914062 29.0276 2.70529 29.0641 4.78704C29.021 6.82896 30.6754 8.72146 32.8526 8.71646Z" fill="#131313"/>
<path d="M51.5174 29.0925C52.11 28.6866 52.6597 28.2216 53.1586 27.7047C53.5586 28.1201 53.994 28.5001 54.4597 28.8402C55.0539 29.2815 55.6961 29.6541 56.3743 29.9508C56.9769 30.2151 57.6029 30.4208 58.2446 30.565C59.1081 30.7593 59.9899 30.8617 60.8748 30.8704C61.5107 30.8657 62.1456 30.8102 62.7732 30.7045C63.5175 30.5893 64.2472 30.3951 64.9503 30.1251C65.667 29.8474 66.3513 29.4911 66.9899 29.0626C67.8534 28.5009 68.6091 27.7878 69.2201 26.9576C69.2659 26.9049 69.2899 26.8367 69.2878 26.7667L67.3711 25.5947C67.318 25.6372 67.268 25.6838 67.2222 25.7341C66.9925 26.021 66.742 26.2901 66.4722 26.5393C66.0201 26.9801 65.5045 27.35 64.942 27.6366C64.4847 27.8674 63.994 28.0259 63.4883 28.1064C62.8065 28.2091 62.1112 28.1701 61.4456 27.9918C61.0482 27.8866 60.6722 27.7136 60.3336 27.4805C59.8326 27.1387 59.419 26.6838 59.1258 26.1525C58.7618 25.4951 58.506 24.7832 58.369 24.0442C58.2201 23.2258 58.1331 22.3972 58.1086 21.5657C58.0805 21.4366 58.0956 21.3018 58.1519 21.1822H67.2534C67.6914 21.1822 68.1315 21.1822 68.5696 21.1822C69.0076 21.1822 69.4258 21.2005 69.8555 21.1673C69.8784 20.9993 69.8784 20.8289 69.8555 20.661C69.842 19.474 69.6378 18.297 69.2513 17.1748C69.0305 16.5464 68.7253 15.9511 68.3435 15.4051C67.7138 14.5237 66.9024 13.7878 65.9644 13.247C65.2779 12.8412 64.5414 12.5265 63.7737 12.3107C62.9196 12.08 62.0425 11.9463 61.1586 11.9123C60.5076 11.8871 59.856 11.9093 59.2086 11.9787C58.5039 12.0529 57.8091 12.1997 57.1347 12.417C56.8956 12.49 56.668 12.583 56.4357 12.6792C55.8977 12.8885 55.3826 13.1533 54.8993 13.4695C54.1539 13.9391 53.4774 14.5095 52.8883 15.1644C52.435 15.6693 52.0505 16.232 51.7448 16.8378C51.3912 17.544 51.1377 18.2961 50.9914 19.0722C50.9015 19.5383 50.8411 20.0096 50.8106 20.4833C50.7089 21.7743 50.8393 23.0731 51.1955 24.3181C51.2436 24.4741 51.2984 24.6269 51.3498 24.7813C51.4269 25.0073 51.5161 25.2289 51.617 25.4453L50.9649 26.1874C50.8553 26.3002 50.7441 26.4098 50.633 26.5194C50.633 26.5194 49.6373 27.6814 48.4276 27.7694C48.2687 27.7843 48.1087 27.7843 47.9497 27.7694L47.8518 27.7445C47.2893 27.5669 47.0437 26.9576 46.9375 26.5111C46.9259 26.453 46.9159 26.3965 46.906 26.3451L46.8844 26.2073C46.82 25.6886 46.7928 25.166 46.8031 24.6435C46.8031 21.5004 46.8031 18.3573 46.8031 15.2142C46.8031 15.186 46.8031 15.1561 46.8031 15.1262V14.8158H51.0661V12.5979H46.8031V9.10341C46.8031 8.71664 46.8031 8.32982 46.8031 7.94138C46.8031 7.55289 46.8031 7.17607 46.8031 6.7793H44.5363C44.475 7.03497 44.4086 7.27732 44.3588 7.52471C44.2111 8.20529 43.9479 8.85549 43.5806 9.44706C43.1439 10.1737 42.5721 10.8099 41.8963 11.3213C41.2819 11.7974 40.5808 12.1492 39.832 12.3572C39.2212 12.5135 38.5939 12.5965 37.9635 12.6046V14.8041H39.9548V16.3132C39.9548 18.2511 39.9548 20.1878 39.9548 22.1235C39.9548 23.2673 39.9448 24.4111 39.9647 25.5549C39.9713 26.1046 40.0421 26.6517 40.1755 27.1851C40.3293 27.8351 40.6151 28.4464 41.0151 28.9813C41.4706 29.569 42.0695 30.0298 42.7541 30.3193C43.2265 30.5176 43.7214 30.657 44.2277 30.7343C44.8047 30.8332 45.3898 30.876 45.975 30.8622C46.552 30.8492 47.1271 30.7937 47.6959 30.6962C48.3387 30.5918 48.9645 30.4009 49.556 30.1284C49.556 30.1284 50.9466 29.5025 51.5174 29.0925ZM58.0888 18.7834C58.0868 17.996 58.18 17.2112 58.3659 16.446C58.4852 15.9114 58.7274 15.4119 59.0727 14.9868C59.3888 14.6144 59.8315 14.372 60.3154 14.3061C60.7883 14.2221 61.2753 14.2907 61.706 14.502C62.0743 14.6884 62.381 14.9765 62.5904 15.3321C63.0102 16.0681 63.2555 16.8903 63.3091 17.7359C63.3404 18.0679 63.369 18.3999 63.3956 18.7319C63.4091 18.813 63.4003 18.8965 63.369 18.9726H58.1352C58.0706 18.9178 58.0888 18.8482 58.0888 18.7834Z" fill="#131313"/>
</svg>
