<svg width="31" height="31" viewBox="0 0 31 31" fill="none" xmlns="http://www.w3.org/2000/svg">
<g clip-path="url(#clip0_2_560)">
<mask id="mask0_2_560" style="mask-type:luminance" maskUnits="userSpaceOnUse" x="0" y="3" width="31" height="25">
<path d="M30.1719 3.69727H0.171875V27.928H30.1719V3.69727Z" fill="white"/>
</mask>
<g mask="url(#mask0_2_560)">
<path d="M30.1719 6.56748C29.0472 7.05976 27.8549 7.38226 26.6344 7.52429C27.921 6.76197 28.885 5.56077 29.3469 4.1444C28.1356 4.8524 26.8129 5.35231 25.4344 5.6231C24.5057 4.64465 23.2789 3.99729 21.9432 3.78093C20.6076 3.56457 19.2375 3.79126 18.0444 4.42599C16.8512 5.06073 15.9015 6.06822 15.3417 7.29293C14.7818 8.51765 14.6431 9.89149 14.9469 11.2024C12.5001 11.0799 10.1066 10.4481 7.92105 9.34786C5.73548 8.24764 3.80666 6.70351 2.25937 4.81541C1.47362 6.16154 1.23272 7.75451 1.58561 9.2708C1.9385 10.7871 2.85872 12.113 4.15938 12.9793C3.19891 12.9487 2.25997 12.6887 1.42188 12.2213C1.4026 13.6401 1.87936 15.0216 2.77075 16.1298C3.66214 17.238 4.91287 18.0042 6.30936 18.2977C5.4045 18.5433 4.45469 18.5774 3.53437 18.3971C3.92598 19.6138 4.6912 20.6781 5.72252 21.4403C6.75382 22.2025 7.99945 22.6244 9.28438 22.6467C6.69653 24.6395 3.42038 25.533 0.171875 25.132C2.98666 26.9303 6.26337 27.8838 9.60935 27.8781C11.9805 27.8948 14.3301 27.4296 16.5138 26.511C18.6975 25.5923 20.6693 24.2397 22.3081 22.5361C23.947 20.8325 25.2182 18.8139 26.0439 16.6042C26.8695 14.3946 27.2321 12.0404 27.1094 9.6864C28.3054 8.83228 29.3419 7.77672 30.1719 6.56748Z" fill="#131313"/>
</g>
</g>
<defs>
<clipPath id="clip0_2_560">
<rect width="30" height="24.2308" fill="white" transform="translate(0.171875 3.69727)"/>
</clipPath>
</defs>
</svg>
